<svg width="560" height="457" viewBox="0 0 560 457" fill="none" xmlns="http://www.w3.org/2000/svg">
<path d="M284.373 332.928C333.081 332.928 372.748 293.261 372.748 244.553C372.748 195.845 333.081 156.179 284.373 156.179C235.665 156.179 195.999 195.845 195.999 244.553C195.999 293.261 235.665 332.928 284.373 332.928ZM284.373 179.661C320.103 179.661 349.269 208.828 349.269 244.557C349.269 280.287 320.103 309.453 284.373 309.453C248.644 309.453 219.477 280.287 219.477 244.557C219.477 208.828 248.644 179.661 284.373 179.661Z" fill="#403D39"/>
<path d="M496.707 56.8747H471.185V0H303.332V56.8747H63.292C28.4373 56.8747 0 85.312 0 120.167V393.46C0 428.315 28.4373 456.752 63.292 456.752H496.559C531.413 456.752 559.851 428.315 559.851 393.46V120.167C559.997 85.312 531.559 56.8747 496.705 56.8747H496.707ZM63.2933 83.5627H496.56C516.831 83.5627 533.164 100.041 533.164 120.167V197.312H408.331C389.372 147.291 340.956 111.708 284.372 111.708C227.788 111.708 179.372 147.292 160.268 197.312H26.6813V120.167C26.6813 99.896 43.16 83.5627 63.2853 83.5627H63.2933ZM284.373 138.396C342.852 138.396 390.54 186.084 390.54 244.563C390.54 303.041 342.852 350.729 284.373 350.729C225.748 350.729 178.207 303.041 178.207 244.563C178.207 185.937 225.895 138.396 284.373 138.396Z" fill="#403D39"/>
</svg>
